<svg width="545.137" height="268.047" overflow="visible" style="display: block;" viewBox="0 0 545.137 268.047" fill="none" xmlns="http://www.w3.org/2000/svg">
<g id="Tr&#195;&#188;ffel">
<path id="Vector" d="M456.434 198.721C451.267 198.721 447.678 197.214 445.669 194.2C443.659 191.185 442.655 187.382 442.655 182.789C442.655 178.052 443.372 172.885 444.808 167.287C446.387 161.689 448.181 156.235 450.19 150.925C452.343 145.614 454.353 140.949 456.218 136.93C458.228 132.911 459.592 130.112 460.309 128.533C462.893 123.079 466.05 116.907 469.782 110.018C473.658 103.128 477.964 96.0951 482.7 88.9184C487.58 81.7418 492.676 74.924 497.986 68.465C503.441 62.0061 509.039 56.4083 514.78 51.6717C520.665 46.9352 526.478 43.7057 532.219 41.9833C533.798 41.5527 535.233 41.3374 536.525 41.3374C538.965 41.3374 540.974 42.0551 542.553 43.4904C544.276 44.7822 545.137 47.0787 545.137 50.3799C545.137 52.6765 544.563 55.5471 543.415 58.9919C541.549 64.0155 538.391 69.6133 533.941 75.7852C529.492 81.8136 524.253 88.129 518.225 94.7315C512.196 101.19 505.809 107.578 499.063 113.893C492.46 120.209 486.002 126.093 479.686 131.548C473.371 137.002 467.773 141.667 462.893 145.542C461.601 148.269 460.381 150.925 459.233 153.508C458.228 156.092 457.295 158.604 456.434 161.044C456.003 162.335 455.357 164.273 454.496 166.857C453.635 169.44 452.845 172.311 452.128 175.469C451.41 178.626 451.051 181.64 451.051 184.511C451.051 187.382 451.625 189.894 452.774 192.047C453.922 194.056 456.003 195.061 459.017 195.061C461.457 195.061 463.682 194.271 465.692 192.692C467.845 191.114 469.782 189.391 471.505 187.525C477.533 180.636 482.916 172.67 487.652 163.627C488.226 162.622 488.657 162.12 488.944 162.12C489.231 162.12 489.375 162.551 489.375 163.412C489.375 164.704 489.087 166.067 488.513 167.503C485.786 172.526 483.274 176.76 480.978 180.205C478.825 183.65 475.667 187.454 471.505 191.616C469.639 193.482 467.414 195.133 464.83 196.568C462.39 198.003 459.592 198.721 456.434 198.721ZM465.261 140.59C469.711 136.715 474.878 132.122 480.763 126.811C486.647 121.357 492.676 115.544 498.848 109.372C505.02 103.2 510.833 97.028 516.287 90.8561C521.885 84.6842 526.693 78.8712 530.712 73.4169C534.874 67.9627 537.673 63.2261 539.109 59.2072C540.4 55.4753 541.046 52.6047 541.046 50.5952C541.046 46.8634 539.396 44.9975 536.094 44.9975C534.228 44.9975 532.004 45.7151 529.42 47.1505C526.837 48.4423 524.468 50.1646 522.315 52.3176C518.727 55.7624 514.493 60.7143 509.613 67.1733C504.876 73.4887 499.852 80.7371 494.542 88.9184C489.231 97.0998 483.992 105.64 478.825 114.539C473.801 123.438 469.28 132.122 465.261 140.59Z" fill="var(--fill-0, white)"/>
<path id="Vector_2" d="M409.774 199.151C401.45 199.151 395.565 196.998 392.12 192.692C390.398 190.827 389.178 188.602 388.46 186.018C387.742 183.435 387.383 180.779 387.383 178.052C387.383 174.607 387.814 171.163 388.675 167.718C389.536 164.13 390.613 160.828 391.905 157.814C393.914 153.077 396.569 148.341 399.871 143.604C403.172 138.724 407.119 134.634 411.712 131.332C416.449 128.031 421.616 126.38 427.214 126.38C430.946 126.38 433.888 127.313 436.041 129.179C438.194 131.045 439.27 133.916 439.27 137.791C439.27 142.241 437.907 146.762 435.18 151.355C432.453 155.805 429.008 159.536 424.845 162.551C420.683 165.565 416.377 167.072 411.927 167.072C407.909 167.072 404.392 165.637 401.378 162.766C400.517 165.062 399.799 167.646 399.225 170.517C398.651 173.244 398.364 176.043 398.364 178.913C398.364 183.363 399.225 187.238 400.947 190.54C402.813 193.841 406.114 195.491 410.851 195.491C414.296 195.491 417.597 194.63 420.755 192.908C424.056 191.042 426.998 188.817 429.582 186.234C432.453 183.219 435.18 179.99 437.763 176.545C440.347 173.1 442.859 169.081 445.299 164.488C445.586 164.058 445.801 163.842 445.945 163.842C446.519 163.842 446.806 164.488 446.806 165.78C446.806 166.641 446.519 167.574 445.945 168.579C443.792 172.454 441.28 176.402 438.409 180.42C435.539 184.296 432.596 187.669 429.582 190.54C426.855 193.123 423.912 195.204 420.755 196.783C417.597 198.362 413.937 199.151 409.774 199.151ZM402.454 159.536C403.459 160.972 404.607 162.048 405.899 162.766C407.334 163.34 408.77 163.627 410.205 163.627C413.65 163.627 417.238 162.335 420.97 159.752C424.702 157.025 427.716 153.867 430.013 150.279C431.017 148.7 431.879 146.619 432.596 144.035C433.457 141.451 433.888 139.011 433.888 136.715C433.888 134.705 433.457 132.983 432.596 131.548C431.879 129.969 430.371 129.179 428.075 129.179C425.491 129.179 422.405 130.758 418.817 133.916C415.372 137.074 412.071 141.164 408.913 146.188C407.909 147.91 406.76 149.92 405.469 152.216C404.32 154.513 403.316 156.953 402.454 159.536Z" fill="var(--fill-0, white)"/>
<path id="Vector_3" d="M263.756 268.047C260.742 268.047 257.656 267.401 254.498 266.109C251.197 264.818 248.757 262.808 247.178 260.081L246.317 257.713C241.437 261.301 236.054 264.1 230.169 266.109C228.303 266.684 226.366 267.114 224.356 267.401C222.347 267.832 220.337 268.047 218.328 268.047C214.883 268.047 211.582 267.401 208.424 266.109C205.267 264.961 202.898 262.952 201.319 260.081C200.602 258.789 200.099 257.426 199.812 255.99C199.525 254.555 199.382 253.263 199.382 252.115C199.382 250.823 199.525 249.603 199.812 248.455C200.099 247.737 200.53 247.235 201.104 246.948C201.535 246.661 201.822 246.948 201.965 247.809C203.544 252.976 206.056 256.708 209.501 259.005C212.946 261.301 216.893 262.449 221.342 262.449C225.218 262.449 229.236 261.66 233.399 260.081C237.561 258.646 241.652 256.636 245.671 254.053C245.671 251.326 245.886 249.46 246.317 248.455C246.604 247.737 247.035 247.235 247.609 246.948C248.039 246.661 248.326 246.948 248.47 247.809C248.757 248.383 248.972 248.957 249.116 249.531C249.259 250.249 249.475 250.967 249.762 251.684C254.068 248.24 258.087 243.718 261.818 238.121C265.407 232.666 268.636 226.925 271.507 220.897C274.377 214.868 276.746 209.271 278.612 204.103C280.621 198.936 282.128 194.989 283.133 192.262C286.004 184.224 289.305 174.751 293.037 163.842C296.912 152.934 300.787 142.241 304.663 131.763H296.051C295.477 131.763 295.19 131.548 295.19 131.117C295.19 130.543 295.477 129.969 296.051 129.395C296.625 128.677 297.199 128.318 297.773 128.318H305.955C310.978 115.687 316.145 102.913 321.456 89.9949C326.767 77.077 333.154 64.5897 340.618 52.5329C348.081 40.4762 357.555 29.496 369.037 19.5922C373.63 15.4298 378.367 11.8415 383.247 8.82726C388.271 5.81308 393.222 3.51656 398.103 1.9377C401.834 0.645907 405.853 1.16763e-05 410.159 1.16763e-05C413.604 1.16763e-05 416.834 0.574142 419.848 1.72241C422.862 2.87067 425.087 4.88012 426.522 7.75077C427.096 8.7555 427.455 9.97553 427.598 11.4109C427.886 12.7027 428.029 13.9944 428.029 15.2862C428.029 17.7263 427.742 19.664 427.168 21.0993C426.881 21.817 426.594 22.1758 426.307 22.1758C425.733 22.1758 425.302 21.4581 425.015 20.0228C423.867 14.5686 421.57 10.6932 418.125 8.39667C414.824 6.10014 410.877 4.95188 406.284 4.95188C399.968 4.95188 393.222 6.96134 386.046 10.9803C378.869 14.8556 372.769 20.0228 367.745 26.4818C356.55 40.835 346.861 56.8389 338.68 74.4934C330.642 92.1479 323.25 110.09 316.504 128.318H358.272C362.291 118.701 366.525 109.085 370.975 99.4681C375.568 89.7079 380.52 80.7371 385.83 72.5557C391.285 64.2308 397.241 57.5566 403.7 52.5329C406.571 50.2364 409.872 48.1552 413.604 46.2893C417.479 44.2798 421.642 43.2751 426.091 43.2751C435.278 43.2751 439.871 47.2222 439.871 55.1165C439.871 55.2601 439.655 55.4036 439.225 55.5471C438.938 55.6906 438.794 55.6189 438.794 55.3318C438.794 52.7482 437.789 50.7388 435.78 49.3035C433.914 47.7246 431.546 46.9352 428.675 46.9352C422.216 46.9352 416.331 49.0164 411.02 53.1788C405.71 57.3413 400.901 62.7237 396.595 69.3262C392.289 75.9287 388.414 82.9618 384.969 90.4255C381.668 97.8892 378.654 104.994 375.927 111.74C373.343 118.486 371.047 124.012 369.037 128.318H389.921C390.495 128.318 390.782 128.533 390.782 128.964C390.782 129.538 390.495 130.184 389.921 130.902C389.347 131.476 388.701 131.763 387.983 131.763H367.53C365.808 135.638 363.726 140.662 361.286 146.834C358.99 153.006 356.478 159.608 353.751 166.641C351.167 173.674 348.44 180.492 345.57 187.095C348.153 189.248 351.813 190.324 356.55 190.324C358.99 190.324 361.502 189.965 364.085 189.248C366.669 188.387 369.037 187.238 371.19 185.803C374.922 182.932 378.08 180.062 380.663 177.191C383.39 174.177 385.902 170.373 388.199 165.78C389.06 164.201 389.778 163.412 390.352 163.412C390.782 163.412 390.998 163.771 390.998 164.488C390.998 165.35 390.711 166.354 390.136 167.503C387.84 171.952 385.256 175.899 382.386 179.344C379.515 182.645 375.783 185.875 371.19 189.032C369.324 190.324 367.1 191.401 364.516 192.262C361.932 192.98 359.205 193.338 356.335 193.338C351.742 193.338 347.723 192.262 344.278 190.109C341.838 195.707 338.608 201.95 334.589 208.84C330.714 215.729 326.193 222.619 321.026 229.509C316.002 236.542 310.476 242.929 304.448 248.67C298.419 254.555 291.96 259.22 285.071 262.665C278.181 266.253 271.076 268.047 263.756 268.047ZM267.416 262.665C274.88 262.665 281.698 260.87 287.87 257.282C294.041 253.694 299.639 248.957 304.663 243.072C309.686 237.188 314.136 230.657 318.011 223.48C322.03 216.447 325.547 209.271 328.561 201.95C331.719 194.774 334.518 188.171 336.958 182.143C336.24 181.138 335.379 179.559 334.374 177.406C333.369 175.11 332.867 172.598 332.867 169.871C332.867 167.718 333.154 165.565 333.728 163.412C334.302 161.115 335.451 159.967 337.173 159.967C338.752 159.967 339.757 160.828 340.187 162.551C340.761 164.13 341.048 165.924 341.048 167.933C341.048 168.938 340.977 169.871 340.833 170.732C340.833 171.45 340.761 172.167 340.618 172.885L347.507 154.585C348.943 150.996 350.378 147.408 351.813 143.82C353.249 140.088 354.899 136.069 356.765 131.763H315.428C311.839 141.38 308.323 151.14 304.878 161.044C301.577 170.804 297.917 180.564 293.898 190.324C291.171 197.07 287.726 204.319 283.564 212.069C279.401 219.964 274.593 227.571 269.139 234.891C263.684 242.355 257.656 248.814 251.053 254.268C252.776 257.139 255.072 259.22 257.943 260.512C260.814 261.947 263.971 262.665 267.416 262.665Z" fill="var(--fill-0, white)"/>
<path id="Vector_4" d="M212.439 198.721C207.99 198.721 204.76 197.429 202.751 194.845C200.885 192.262 199.952 189.104 199.952 185.372C199.952 180.636 200.885 175.469 202.751 169.871C204.76 164.273 207.057 158.962 209.64 153.939C212.224 148.772 214.305 144.753 215.884 141.882C219.042 136.571 222.2 133.27 225.357 131.978C228.659 130.686 232.677 130.041 237.414 130.041C235.979 130.471 234.113 132.194 231.816 135.208C229.52 138.078 227.08 141.667 224.496 145.973C222.056 150.279 219.688 154.943 217.391 159.967C215.238 164.847 213.444 169.656 212.009 174.392C210.717 178.985 210.071 182.932 210.071 186.234C210.071 188.674 210.502 190.683 211.363 192.262C212.368 193.841 213.875 194.63 215.884 194.63C217.607 194.63 219.616 193.984 221.912 192.693C224.209 191.257 226.29 189.535 228.156 187.525C234.472 180.492 239.567 172.813 243.442 164.488C247.461 156.02 251.911 147.623 256.791 139.298C259.949 133.988 263.106 130.686 266.264 129.395C269.565 128.103 273.584 127.457 278.321 127.457C276.885 127.888 274.948 129.682 272.508 132.839C270.068 135.854 267.484 139.657 264.757 144.25C262.173 148.843 259.733 153.795 257.437 159.106C255.14 164.273 253.203 169.297 251.624 174.177C250.188 179.057 249.471 183.219 249.471 186.664C249.471 188.961 249.901 190.898 250.763 192.477C251.767 193.913 253.203 194.63 255.069 194.63C256.791 194.63 258.8 193.913 261.097 192.477C263.393 191.042 265.475 189.391 267.341 187.525C270.642 183.937 273.656 179.99 276.383 175.684C279.11 171.378 281.837 166.785 284.564 161.905C284.995 161.331 285.354 161.044 285.641 161.044C286.215 161.044 286.502 161.474 286.502 162.335C286.502 163.053 286.359 163.627 286.072 164.058C283.488 168.794 280.761 173.531 277.89 178.267C275.02 183.004 271.503 187.454 267.341 191.616C265.044 193.913 262.317 195.85 259.159 197.429C256.145 198.864 253.131 199.295 250.117 198.721C246.098 198.003 243.227 196.424 241.505 193.984C239.782 191.401 238.921 188.315 238.921 184.726C238.921 181.856 239.352 178.842 240.213 175.684C238.491 178.411 236.625 181.138 234.615 183.865C232.749 186.592 230.596 189.176 228.156 191.616C226.147 193.625 223.707 195.348 220.836 196.783C218.109 198.075 215.31 198.721 212.439 198.721ZM241.505 113.463C240.069 113.463 238.849 112.96 237.845 111.955C236.84 110.807 236.338 109.515 236.338 108.08C236.338 106.071 237.127 104.348 238.706 102.913C240.285 101.478 242.007 100.688 243.873 100.545C245.452 100.545 246.744 101.047 247.748 102.052C248.897 103.056 249.471 104.348 249.471 105.927C249.471 107.937 248.61 109.731 246.887 111.31C245.308 112.745 243.514 113.463 241.505 113.463ZM266.049 113.463C264.613 113.463 263.393 112.96 262.389 111.955C261.527 110.807 261.097 109.515 261.097 108.08C261.097 106.071 261.886 104.348 263.465 102.913C265.044 101.478 266.766 100.688 268.632 100.545C272.221 100.545 274.015 102.267 274.015 105.712C274.015 107.865 273.154 109.731 271.431 111.31C269.852 112.745 268.058 113.463 266.049 113.463Z" fill="var(--fill-0, white)"/>
<path id="Vector_5" d="M128.95 196.137C128.089 197.142 127.228 197.644 126.367 197.644C125.793 197.644 125.434 197.429 125.29 196.998C125.147 196.424 125.29 195.85 125.721 195.276C128.161 192.549 131.103 188.817 134.548 184.081C137.993 179.344 141.438 174.105 144.883 168.364C148.327 162.622 151.342 156.738 153.925 150.709C156.509 144.537 158.088 138.652 158.662 133.055C155.36 131.189 153.136 127.959 151.987 123.366C151.844 122.649 151.7 122.003 151.557 121.429C151.557 120.711 151.557 120.065 151.557 119.491C151.557 116.907 152.059 114.754 153.064 113.032C154.212 111.166 155.504 110.233 156.939 110.233C158.949 110.233 160.599 112.171 161.891 116.046C162.178 117.051 162.394 118.199 162.537 119.491C162.681 120.639 162.752 121.787 162.752 122.936C162.752 124.227 162.681 125.447 162.537 126.596C162.537 127.6 162.465 128.462 162.322 129.179C163.327 129.466 164.618 129.682 166.197 129.825C167.92 129.969 169.785 130.041 171.795 130.041C174.809 130.041 177.967 129.969 181.268 129.825C184.569 129.538 187.368 129.395 189.665 129.395C192.392 129.395 194.258 129.969 195.263 131.117C196.267 132.265 196.77 133.701 196.77 135.423C196.77 137.576 196.195 139.944 195.047 142.528C194.042 144.968 193.038 147.049 192.033 148.772C190.167 152.216 188.373 155.302 186.651 158.029C185.072 160.613 183.278 163.412 181.268 166.426C178.254 171.019 176.029 175.253 174.594 179.129C173.302 182.861 172.656 186.018 172.656 188.602C172.656 193.051 174.307 195.276 177.608 195.276C180.335 195.276 183.852 193.338 188.158 189.463C190.885 187.023 193.397 184.152 195.693 180.851C198.133 177.406 200.286 173.961 202.152 170.517C204.162 166.928 205.812 163.986 207.104 161.689C207.391 161.259 207.678 161.044 207.965 161.044C208.539 161.044 208.826 161.618 208.826 162.766C208.826 163.627 208.611 164.417 208.18 165.134C205.74 169.584 202.942 174.464 199.784 179.775C196.626 185.085 192.751 189.678 188.158 193.554C185.718 195.563 183.278 196.998 180.837 197.86C178.541 198.864 176.388 199.367 174.379 199.367C170.79 199.367 167.776 198.147 165.336 195.707C163.039 193.123 161.891 189.75 161.891 185.588C161.891 183.148 162.465 180.205 163.614 176.76C165.48 171.593 168.278 166.641 172.01 161.905C175.742 157.168 179.33 152.36 182.775 147.48C184.928 144.609 186.005 141.81 186.005 139.083C186.005 137.648 185.574 136.428 184.713 135.423C183.995 134.418 182.632 133.844 180.622 133.701C179.474 133.414 178.182 133.27 176.747 133.27C175.311 133.27 173.876 133.27 172.441 133.27H166.412C165.551 133.27 164.762 133.27 164.044 133.27C163.327 133.27 162.681 133.198 162.106 133.055C161.389 138.509 159.666 144.394 156.939 150.709C154.356 156.881 151.27 162.981 147.681 169.01C144.237 175.038 140.792 180.42 137.347 185.157C134.046 189.894 131.247 193.554 128.95 196.137Z" fill="var(--fill-0, white)"/>
<path id="Vector_6" d="M12.4873 216.375C10.7649 215.514 9.40138 214.294 8.39666 212.715C7.53546 211.136 7.10486 209.558 7.10486 207.979C7.10486 206.4 7.53546 205.108 8.39666 204.103C8.82725 203.529 9.32962 203.17 9.90375 203.027C10.6214 203.027 10.8367 203.386 10.5496 204.103C10.119 206.256 11.1238 208.266 13.5638 210.132C16.0039 211.998 18.2286 213.218 20.2381 213.792C22.3911 214.222 24.5441 214.438 26.6971 214.438C31.1466 214.438 35.0937 213.792 38.5385 212.5C43.7057 210.778 48.8011 207.261 53.8247 201.95C58.9919 196.64 63.8002 190.611 68.2498 183.865C72.5557 177.263 76.7899 169.799 80.9524 161.474C85.2584 153.006 89.5643 144.322 93.8703 135.423C98.3198 126.38 103.056 117.697 108.08 109.372C113.104 100.903 118.486 93.3679 124.227 86.7654C130.112 80.0194 136.571 74.8522 143.604 71.2639C136.571 70.4027 129.323 69.2545 121.859 67.8191C114.539 66.2403 108.367 65.0203 103.343 64.1591C100.186 63.5849 96.5974 63.2261 92.5785 63.0826C88.5596 62.7955 84.3254 62.652 79.8759 62.652C71.9816 62.652 64.0873 63.1543 56.193 64.1591C48.2987 65.0203 41.9833 66.5274 37.2467 68.6803C28.9218 72.4122 21.7452 77.5794 15.7168 84.1819C9.68845 90.6408 6.67427 98.7504 6.67427 108.511C6.67427 112.53 7.32016 115.974 8.61195 118.845C10.0473 121.572 11.8414 123.653 13.9944 125.089C16.4345 126.524 18.9463 127.242 21.5299 127.242C24.6876 127.242 27.9171 126.309 31.2183 124.443C34.5196 122.433 37.3902 119.563 39.8303 115.831C40.9786 113.965 42.055 111.238 43.0598 107.649C44.208 104.061 44.7822 100.401 44.7822 96.6692C44.7822 94.6597 44.5669 92.7221 44.1363 90.8561C43.8492 88.9902 43.2033 87.3396 42.1986 85.9042C41.9115 85.3301 41.768 85.043 41.768 85.043C41.768 84.6124 41.9833 84.3972 42.4139 84.3972C42.988 84.3972 43.4904 84.756 43.921 85.4736C44.6386 86.4784 45.3563 88.0572 46.074 90.2102C46.9352 92.2197 47.5093 94.0856 47.7964 95.808C47.9399 96.6692 48.0116 97.5304 48.0116 98.3916C48.1552 99.2528 48.2269 100.114 48.2269 100.975C48.2269 103.846 47.8681 106.788 47.1505 109.802C46.4328 112.673 45.2845 115.328 43.7057 117.768C41.4092 121.644 38.3232 124.586 34.4478 126.596C30.5724 128.462 26.5535 129.395 22.3911 129.395C19.0898 129.395 15.9321 128.749 12.9179 127.457C8.46842 125.304 5.16717 122.218 3.01418 118.199C1.00473 114.18 0 109.802 0 105.066C0 101.908 0.358832 98.7504 1.07649 95.5927C1.93769 92.2914 3.08595 89.1337 4.52128 86.1195C6.96133 80.8088 10.3343 76.144 14.6403 72.1251C18.9463 68.1062 23.2523 64.9485 27.5583 62.652C34.7349 58.7766 41.9115 56.0495 49.0881 54.4706C56.4083 52.8918 63.8002 52.1023 71.2639 52.1023C77.4358 52.1023 83.6795 52.5329 89.9949 53.3941C96.3104 54.2553 102.698 55.4753 109.157 57.0542C116.477 58.7766 124.012 60.7143 131.763 62.8673C135.638 63.872 140.231 65.0203 145.542 66.3121C150.996 67.4603 156.163 68.0344 161.044 68.0344C163.914 68.0344 166.713 67.6756 169.44 66.9579C172.311 66.0967 174.536 64.4461 176.114 62.0061C176.689 61.1449 176.976 60.0684 176.976 58.7766C176.976 58.0589 176.904 57.413 176.76 56.8389C176.76 56.1212 176.832 55.6906 176.976 55.5471C177.263 55.26 177.55 55.1165 177.837 55.1165C178.411 55.1165 178.913 55.5471 179.344 56.4083C179.775 56.9824 179.99 58.0589 179.99 59.6378C179.99 60.6425 179.918 61.3602 179.775 61.7908C178.913 64.805 176.976 67.1015 173.961 68.6803C171.091 70.2592 168.22 71.2639 165.35 71.6945C164.201 71.8381 162.909 71.9816 161.474 72.1251C160.182 72.1251 158.819 72.1251 157.383 72.1251C156.235 72.1251 155.015 72.1251 153.723 72.1251C152.432 72.1251 151.14 72.0534 149.848 71.9098C145.111 74.0628 140.16 78.1535 134.992 84.1819C128.677 91.6455 123.223 99.6116 118.63 108.08C114.037 116.405 109.802 125.017 105.927 133.916C102.052 142.671 98.0328 151.355 93.8703 159.967C89.8514 168.579 85.0431 176.832 79.4453 184.726C74.4216 191.76 68.7521 198.075 62.4367 203.673C56.1212 209.271 48.9446 213.505 40.9068 216.375C36.4573 217.954 31.1466 218.744 24.9747 218.744C22.5346 218.744 20.2381 218.528 18.0851 218.098C15.9321 217.811 14.0662 217.237 12.4873 216.375Z" fill="var(--fill-0, white)"/>
</g>
</svg>
