<svg width="671.314" height="330.089" overflow="visible" style="display: block;" viewBox="0 0 671.314 330.089" fill="none" xmlns="http://www.w3.org/2000/svg">
<g id="Tr&#195;&#188;ffel">
<path id="Vector" d="M562.08 244.717C555.717 244.717 551.298 242.861 548.823 239.149C546.349 235.437 545.111 230.753 545.111 225.097C545.111 219.264 545.995 212.901 547.763 206.007C549.707 199.114 551.916 192.397 554.391 185.857C557.042 179.317 559.517 173.573 561.815 168.624C564.289 163.675 565.968 160.228 566.852 158.284C570.034 151.567 573.922 143.967 578.518 135.482C583.29 126.998 588.593 118.337 594.426 109.499C600.435 100.662 606.71 92.2658 613.25 84.3119C619.967 76.3579 626.86 69.4645 633.93 63.6316C641.177 57.7987 648.336 53.8217 655.406 51.7007C657.35 51.1704 659.118 50.9053 660.709 50.9053C663.714 50.9053 666.188 51.7891 668.132 53.5566C670.253 55.1474 671.314 57.9755 671.314 62.0408C671.314 64.8689 670.607 68.404 669.193 72.6461C666.895 78.8325 663.007 85.7259 657.527 93.3264C652.048 100.75 645.596 108.527 638.172 116.658C630.749 124.612 622.883 132.477 614.576 140.255C606.445 148.032 598.491 155.279 590.714 161.995C582.937 168.712 576.043 174.457 570.034 179.229C568.443 182.587 566.94 185.857 565.526 189.039C564.289 192.22 563.14 195.314 562.08 198.319C561.549 199.909 560.754 202.295 559.694 205.477C558.633 208.659 557.661 212.194 556.777 216.082C555.893 219.971 555.451 223.683 555.451 227.218C555.451 230.753 556.158 233.846 557.572 236.497C558.987 238.972 561.549 240.209 565.261 240.209C568.266 240.209 571.006 239.237 573.48 237.293C576.132 235.349 578.518 233.228 580.639 230.93C588.063 222.446 594.691 212.636 600.524 201.5C601.231 200.263 601.761 199.644 602.115 199.644C602.468 199.644 602.645 200.174 602.645 201.235C602.645 202.826 602.291 204.505 601.584 206.272C598.226 212.459 595.133 217.673 592.305 221.915C589.653 226.157 585.765 230.841 580.639 235.967C578.341 238.265 575.601 240.298 572.42 242.065C569.415 243.833 565.968 244.717 562.08 244.717ZM572.95 173.131C578.43 168.359 584.793 162.702 592.04 156.163C599.287 149.446 606.71 142.287 614.311 134.687C621.911 127.086 629.07 119.486 635.786 111.886C642.68 104.285 648.601 97.1266 653.55 90.4099C658.676 83.6932 662.123 77.8603 663.89 72.9112C665.481 68.3156 666.276 64.7805 666.276 62.3059C666.276 57.7103 664.244 55.4125 660.178 55.4125C657.881 55.4125 655.141 56.2963 651.959 58.0638C648.778 59.6546 645.861 61.7757 643.21 64.427C638.791 68.6691 633.577 74.7671 627.567 82.7211C621.734 90.4983 615.548 99.4244 609.008 109.499C602.468 119.574 596.017 130.091 589.653 141.05C583.467 152.009 577.899 162.702 572.95 173.131Z" fill="var(--fill-0, #541115)"/>
<path id="Vector_2" d="M504.62 245.247C494.369 245.247 487.122 242.596 482.88 237.293C480.759 234.995 479.256 232.255 478.372 229.074C477.489 225.892 477.047 222.622 477.047 219.264C477.047 215.022 477.577 210.78 478.638 206.538C479.698 202.119 481.024 198.053 482.614 194.342C485.089 188.509 488.359 182.676 492.424 176.843C496.49 170.833 501.35 165.796 507.007 161.73C512.839 157.665 519.203 155.632 526.096 155.632C530.692 155.632 534.315 156.781 536.966 159.079C539.618 161.377 540.943 164.912 540.943 169.684C540.943 175.164 539.264 180.731 535.906 186.388C532.548 191.867 528.306 196.463 523.18 200.174C518.054 203.886 512.751 205.742 507.272 205.742C502.323 205.742 497.992 203.975 494.28 200.44C493.22 203.268 492.336 206.449 491.629 209.984C490.922 213.343 490.568 216.789 490.568 220.324C490.568 225.804 491.629 230.576 493.75 234.642C496.048 238.707 500.113 240.74 505.946 240.74C510.188 240.74 514.254 239.679 518.142 237.558C522.208 235.26 525.831 232.521 529.013 229.339C532.548 225.627 535.906 221.65 539.088 217.408C542.269 213.166 545.362 208.217 548.367 202.561C548.721 202.03 548.986 201.765 549.163 201.765C549.87 201.765 550.223 202.561 550.223 204.151C550.223 205.212 549.87 206.361 549.163 207.598C546.511 212.37 543.418 217.231 539.883 222.18C536.348 226.953 532.724 231.106 529.013 234.642C525.654 237.823 522.031 240.386 518.142 242.33C514.254 244.275 509.746 245.247 504.62 245.247ZM495.606 196.463C496.843 198.23 498.257 199.556 499.848 200.44C501.616 201.147 503.383 201.5 505.151 201.5C509.393 201.5 513.812 199.909 518.407 196.728C523.003 193.369 526.715 189.481 529.543 185.062C530.78 183.118 531.841 180.555 532.724 177.373C533.785 174.192 534.315 171.187 534.315 168.359C534.315 165.884 533.785 163.763 532.724 161.995C531.841 160.051 529.985 159.079 527.157 159.079C523.975 159.079 520.175 161.023 515.756 164.912C511.514 168.801 507.449 173.838 503.56 180.024C502.323 182.145 500.909 184.62 499.318 187.448C497.904 190.276 496.666 193.281 495.606 196.463Z" fill="var(--fill-0, #541115)"/>
<path id="Vector_3" d="M324.805 330.089C321.093 330.089 317.293 329.294 313.404 327.703C309.339 326.112 306.334 323.637 304.39 320.279L303.329 317.363C297.319 321.782 290.691 325.228 283.444 327.703C281.146 328.41 278.76 328.94 276.286 329.294C273.811 329.824 271.336 330.089 268.862 330.089C264.62 330.089 260.554 329.294 256.666 327.703C252.777 326.289 249.861 323.814 247.917 320.279C247.033 318.688 246.414 317.009 246.061 315.242C245.707 313.474 245.53 311.883 245.53 310.469C245.53 308.878 245.707 307.376 246.061 305.962C246.414 305.078 246.944 304.46 247.651 304.106C248.182 303.753 248.535 304.106 248.712 305.167C250.656 311.53 253.749 316.125 257.992 318.953C262.234 321.782 267.094 323.196 272.574 323.196C277.346 323.196 282.295 322.223 287.421 320.279C292.547 318.512 297.585 316.037 302.534 312.855C302.534 309.497 302.799 307.199 303.329 305.962C303.683 305.078 304.213 304.46 304.92 304.106C305.45 303.753 305.804 304.106 305.98 305.167C306.334 305.874 306.599 306.581 306.776 307.288C306.953 308.171 307.218 309.055 307.571 309.939C312.874 305.697 317.823 300.129 322.419 293.236C326.837 286.519 330.814 279.449 334.349 272.025C337.885 264.601 340.801 257.708 343.099 251.345C345.573 244.982 347.429 240.121 348.667 236.763C352.202 226.864 356.267 215.199 360.863 201.765C365.635 188.332 370.407 175.164 375.18 162.261H364.574C363.867 162.261 363.514 161.995 363.514 161.465C363.514 160.758 363.867 160.051 364.574 159.344C365.281 158.46 365.989 158.019 366.696 158.019H376.771C382.957 142.464 389.32 126.733 395.86 110.825C402.4 94.9172 410.266 79.5395 419.457 64.6921C428.648 49.8448 440.314 36.3231 454.454 24.127C460.11 19.0011 465.943 14.5822 471.953 10.8704C478.139 7.15856 484.237 4.33049 490.247 2.38618C494.843 0.795394 499.792 0 505.094 0C509.336 0 513.313 0.707018 517.025 2.12106C520.737 3.5351 523.477 6.00966 525.244 9.54474C525.951 10.782 526.393 12.2844 526.57 14.052C526.923 15.6428 527.1 17.2336 527.1 18.8244C527.1 21.8292 526.747 24.2154 526.04 25.9829C525.686 26.8667 525.333 27.3086 524.979 27.3086C524.272 27.3086 523.742 26.4248 523.388 24.6572C521.974 17.9406 519.146 13.1682 514.904 10.3401C510.839 7.51206 505.978 6.09803 500.322 6.09803C492.545 6.09803 484.237 8.57259 475.4 13.5217C466.562 18.2941 459.05 24.6573 452.863 32.6112C439.076 50.2867 427.146 69.9948 417.071 91.7356C407.172 113.476 398.069 135.571 389.762 158.019H441.198C446.147 146.176 451.361 134.333 456.84 122.491C462.496 110.472 468.594 99.4244 475.134 89.3494C481.851 79.0976 489.186 70.8786 497.14 64.6921C500.675 61.8641 504.741 59.3011 509.336 57.0033C514.109 54.5288 519.235 53.2915 524.714 53.2915C536.026 53.2915 541.682 58.1522 541.682 67.8737C541.682 68.0505 541.417 68.2272 540.887 68.404C540.534 68.5807 540.357 68.4924 540.357 68.1389C540.357 64.9573 539.12 62.4827 536.645 60.7152C534.347 58.7709 531.431 57.7987 527.896 57.7987C519.942 57.7987 512.695 60.3617 506.155 65.4875C499.615 70.6134 493.694 77.2417 488.391 85.3724C483.088 93.5031 478.316 102.164 474.074 111.355C470.009 120.547 466.297 129.296 462.938 137.603C459.757 145.911 456.929 152.716 454.454 158.019H480.172C480.879 158.019 481.232 158.284 481.232 158.814C481.232 159.521 480.879 160.316 480.172 161.2C479.465 161.907 478.669 162.261 477.786 162.261H452.598C450.477 167.033 447.914 173.219 444.909 180.82C442.081 188.42 438.988 196.551 435.63 205.212C432.448 213.873 429.09 222.269 425.555 230.399C428.736 233.051 433.244 234.376 439.077 234.376C442.081 234.376 445.175 233.935 448.356 233.051C451.538 231.99 454.454 230.576 457.105 228.809C461.701 225.274 465.59 221.738 468.771 218.203C472.13 214.492 475.223 209.808 478.051 204.151C479.111 202.207 479.995 201.235 480.702 201.235C481.232 201.235 481.498 201.677 481.498 202.561C481.498 203.621 481.144 204.858 480.437 206.272C477.609 211.752 474.427 216.613 470.892 220.855C467.357 224.92 462.762 228.897 457.105 232.786C454.808 234.376 452.068 235.702 448.886 236.763C445.705 237.646 442.346 238.088 438.811 238.088C433.155 238.088 428.206 236.763 423.964 234.111C420.959 241.005 416.982 248.694 412.033 257.178C407.261 265.662 401.693 274.146 395.33 282.63C389.143 291.291 382.338 299.157 374.915 306.227C367.491 313.474 359.537 319.219 351.053 323.461C342.569 327.88 333.819 330.089 324.805 330.089ZM329.312 323.461C338.503 323.461 346.899 321.251 354.499 316.832C362.1 312.414 368.993 306.581 375.18 299.334C381.366 292.087 386.846 284.044 391.618 275.207C396.567 266.546 400.897 257.708 404.609 248.694C408.498 239.856 411.945 231.725 414.95 224.301C414.066 223.064 413.005 221.12 411.768 218.469C410.531 215.64 409.912 212.547 409.912 209.189C409.912 206.538 410.266 203.886 410.973 201.235C411.68 198.407 413.094 196.993 415.215 196.993C417.159 196.993 418.396 198.053 418.926 200.174C419.633 202.119 419.987 204.328 419.987 206.803C419.987 208.04 419.899 209.189 419.722 210.249C419.722 211.133 419.633 212.017 419.457 212.901L427.941 190.365C429.708 185.946 431.476 181.527 433.244 177.108C435.011 172.512 437.044 167.563 439.342 162.261H388.436C384.017 174.103 379.687 186.122 375.445 198.319C371.379 210.338 366.872 222.357 361.923 234.376C358.565 242.684 354.323 251.61 349.197 261.155C344.071 270.876 338.15 280.244 331.433 289.259C324.716 298.45 317.293 306.404 309.162 313.121C311.283 316.656 314.111 319.219 317.646 320.809C321.181 322.577 325.07 323.461 329.312 323.461Z" fill="var(--fill-0, #541115)"/>
<path id="Vector_4" d="M261.61 244.717C256.131 244.717 252.154 243.126 249.679 239.944C247.382 236.763 246.233 232.874 246.233 228.278C246.233 222.445 247.382 216.082 249.679 209.189C252.154 202.295 254.982 195.756 258.164 189.569C261.345 183.206 263.908 178.257 265.852 174.722C269.741 168.182 273.63 164.117 277.518 162.526C281.584 160.935 286.533 160.14 292.366 160.14C290.598 160.67 288.3 162.791 285.472 166.503C282.644 170.038 279.639 174.457 276.458 179.759C273.453 185.062 270.536 190.806 267.708 196.993C265.057 203.002 262.848 208.924 261.08 214.757C259.489 220.413 258.694 225.274 258.694 229.339C258.694 232.344 259.224 234.818 260.285 236.763C261.522 238.707 263.378 239.679 265.852 239.679C267.973 239.679 270.448 238.884 273.276 237.293C276.104 235.525 278.667 233.404 280.965 230.93C288.742 222.269 295.017 212.812 299.789 202.561C304.738 192.132 310.218 181.792 316.227 171.54C320.116 165 324.005 160.935 327.893 159.344C331.959 157.753 336.908 156.958 342.741 156.958C340.973 157.488 338.587 159.698 335.582 163.586C332.577 167.298 329.396 171.982 326.037 177.638C322.856 183.294 319.851 189.392 317.023 195.932C314.195 202.295 311.809 208.482 309.864 214.492C308.097 220.501 307.213 225.627 307.213 229.869C307.213 232.697 307.743 235.083 308.804 237.028C310.041 238.795 311.809 239.679 314.106 239.679C316.227 239.679 318.702 238.795 321.53 237.028C324.358 235.26 326.921 233.228 329.219 230.93C333.284 226.511 336.996 221.65 340.354 216.347C343.713 211.045 347.071 205.389 350.429 199.379C350.96 198.672 351.402 198.319 351.755 198.319C352.462 198.319 352.816 198.849 352.816 199.909C352.816 200.793 352.639 201.5 352.285 202.03C349.104 207.863 345.745 213.696 342.21 219.529C338.675 225.362 334.345 230.841 329.219 235.967C326.391 238.795 323.032 241.181 319.144 243.126C315.432 244.893 311.72 245.424 308.008 244.717C303.059 243.833 299.524 241.888 297.403 238.884C295.282 235.702 294.222 231.902 294.222 227.483C294.222 223.948 294.752 220.236 295.812 216.347C293.691 219.706 291.393 223.064 288.919 226.422C286.621 229.781 283.97 232.962 280.965 235.967C278.49 238.442 275.486 240.563 271.95 242.33C268.592 243.921 265.145 244.717 261.61 244.717ZM297.403 139.724C295.636 139.724 294.133 139.106 292.896 137.868C291.659 136.454 291.04 134.864 291.04 133.096C291.04 130.622 292.012 128.5 293.956 126.733C295.901 124.965 298.022 123.993 300.32 123.816C302.264 123.816 303.855 124.435 305.092 125.672C306.506 126.91 307.213 128.5 307.213 130.445C307.213 132.919 306.152 135.129 304.031 137.073C302.087 138.841 299.878 139.724 297.403 139.724ZM327.628 139.724C325.861 139.724 324.358 139.106 323.121 137.868C322.06 136.454 321.53 134.864 321.53 133.096C321.53 130.622 322.502 128.5 324.447 126.733C326.391 124.965 328.512 123.993 330.81 123.816C335.229 123.816 337.438 125.938 337.438 130.18C337.438 132.831 336.377 135.129 334.256 137.073C332.312 138.841 330.103 139.724 327.628 139.724Z" fill="var(--fill-0, #541115)"/>
<path id="Vector_5" d="M158.797 241.535C157.737 242.772 156.676 243.391 155.616 243.391C154.909 243.391 154.467 243.126 154.29 242.596C154.113 241.888 154.29 241.181 154.82 240.474C157.825 237.116 161.449 232.52 165.691 226.688C169.933 220.855 174.175 214.403 178.417 207.333C182.659 200.263 186.371 193.016 189.552 185.592C192.734 177.992 194.678 170.745 195.385 163.851C191.32 161.554 188.58 157.577 187.166 151.92C186.99 151.037 186.813 150.241 186.636 149.534C186.636 148.65 186.636 147.855 186.636 147.148C186.636 143.966 187.255 141.315 188.492 139.194C189.906 136.896 191.497 135.747 193.264 135.747C195.739 135.747 197.772 138.134 199.362 142.906C199.716 144.143 199.981 145.557 200.158 147.148C200.334 148.562 200.423 149.976 200.423 151.39C200.423 152.981 200.334 154.483 200.158 155.897C200.158 157.135 200.069 158.195 199.893 159.079C201.13 159.433 202.721 159.698 204.665 159.874C206.786 160.051 209.084 160.14 211.558 160.14C215.27 160.14 219.159 160.051 223.224 159.874C227.29 159.521 230.736 159.344 233.564 159.344C236.923 159.344 239.22 160.051 240.458 161.465C241.695 162.879 242.314 164.647 242.314 166.768C242.314 169.419 241.607 172.336 240.193 175.517C238.955 178.522 237.718 181.085 236.481 183.206C234.183 187.448 231.974 191.248 229.852 194.607C227.908 197.788 225.699 201.235 223.224 204.947C219.512 210.603 216.773 215.817 215.005 220.59C213.414 225.185 212.619 229.074 212.619 232.255C212.619 237.735 214.652 240.474 218.717 240.474C222.075 240.474 226.406 238.088 231.708 233.316C235.067 230.311 238.16 226.776 240.988 222.711C243.993 218.469 246.644 214.226 248.942 209.984C251.417 205.565 253.449 201.942 255.04 199.114C255.394 198.584 255.747 198.318 256.101 198.318C256.808 198.318 257.161 199.026 257.161 200.44C257.161 201.5 256.896 202.472 256.366 203.356C253.361 208.835 249.914 214.845 246.026 221.385C242.137 227.925 237.365 233.581 231.708 238.353C228.704 240.828 225.699 242.595 222.694 243.656C219.866 244.893 217.215 245.512 214.74 245.512C210.321 245.512 206.609 244.01 203.604 241.005C200.776 237.823 199.362 233.669 199.362 228.544C199.362 225.539 200.069 221.915 201.483 217.673C203.781 211.31 207.228 205.212 211.824 199.379C216.419 193.546 220.838 187.625 225.08 181.615C227.731 178.08 229.057 174.633 229.057 171.275C229.057 169.508 228.527 168.005 227.466 166.768C226.583 165.531 224.903 164.824 222.429 164.647C221.015 164.293 219.424 164.117 217.656 164.117C215.889 164.117 214.121 164.117 212.354 164.117H204.93C203.87 164.117 202.897 164.117 202.014 164.117C201.13 164.117 200.334 164.028 199.627 163.851C198.744 170.568 196.623 177.815 193.264 185.592C190.083 193.193 186.283 200.705 181.864 208.128C177.622 215.552 173.379 222.18 169.137 228.013C165.072 233.846 161.625 238.353 158.797 241.535Z" fill="var(--fill-0, #541115)"/>
<path id="Vector_6" d="M15.3776 266.457C13.2566 265.397 11.5774 263.894 10.3401 261.95C9.27961 260.006 8.74935 258.062 8.74935 256.117C8.74935 254.173 9.27961 252.582 10.3401 251.345C10.8704 250.638 11.489 250.196 12.1961 250.019C13.0798 250.019 13.345 250.461 12.9915 251.345C12.4612 253.996 13.6985 256.471 16.7033 258.769C19.7081 261.066 22.4478 262.569 24.9224 263.276C27.5737 263.806 30.225 264.071 32.8763 264.071C38.3557 264.071 43.2165 263.276 47.4586 261.685C53.8217 259.564 60.0965 255.233 66.2829 248.694C72.6461 242.154 78.5674 234.73 84.0468 226.422C89.3494 218.292 94.5637 209.101 99.6895 198.849C104.992 188.42 110.295 177.727 115.597 166.768C121.077 155.632 126.91 144.939 133.096 134.687C139.283 124.258 145.911 114.979 152.981 106.848C160.228 98.5406 168.182 92.1774 176.843 87.7586C168.182 86.6981 159.256 85.284 150.065 83.5165C141.05 81.5722 133.45 80.0698 127.263 79.0092C123.375 78.3022 118.956 77.8603 114.007 77.6836C109.058 77.3301 103.843 77.1533 98.3639 77.1533C88.6424 77.1533 78.9209 77.7719 69.1994 79.0092C59.4779 80.0698 51.7007 81.9257 45.8678 84.577C35.616 89.1726 26.7783 95.5358 19.3546 103.666C11.9309 111.62 8.21908 121.607 8.21908 133.626C8.21908 138.575 9.01448 142.818 10.6053 146.353C12.3728 149.711 14.5822 152.274 17.2336 154.041C20.2384 155.809 23.3316 156.693 26.5132 156.693C30.4018 156.693 34.3787 155.544 38.4441 153.246C42.5095 150.772 46.0445 147.236 49.0494 142.641C50.4634 140.343 51.7891 136.985 53.0263 132.566C54.4404 128.147 55.1474 123.64 55.1474 119.044C55.1474 116.57 54.8823 114.183 54.352 111.886C53.9985 109.588 53.2031 107.555 51.9658 105.788C51.6123 105.081 51.4356 104.727 51.4356 104.727C51.4356 104.197 51.7007 103.932 52.2309 103.932C52.938 103.932 53.5566 104.373 54.0869 105.257C54.9706 106.495 55.8544 108.439 56.7382 111.09C57.7987 113.565 58.5057 115.863 58.8592 117.984C59.036 119.044 59.1244 120.105 59.1244 121.165C59.3011 122.226 59.3895 123.286 59.3895 124.347C59.3895 127.882 58.9476 131.505 58.0638 135.217C57.1801 138.752 55.766 142.022 53.8217 145.027C50.9937 149.799 47.1934 153.423 42.4211 155.897C37.6487 158.195 32.6996 159.344 27.5737 159.344C23.5083 159.344 19.6197 158.549 15.9079 156.958C10.4285 154.307 6.36316 150.506 3.71184 145.557C1.23728 140.608 0 135.217 0 129.384C0 125.496 0.441886 121.607 1.32566 117.718C2.38619 113.653 3.80022 109.764 5.56777 106.053C8.57259 99.5127 12.7263 93.7682 18.029 88.8191C23.3316 83.87 28.6342 79.9814 33.9369 77.1533C42.7746 72.3809 51.6123 69.0226 60.45 67.0783C69.4645 65.134 78.5674 64.1619 87.7586 64.1619C95.359 64.1619 103.048 64.6921 110.825 65.7526C118.602 66.8132 126.468 68.3156 134.422 70.2599C143.436 72.3809 152.716 74.7671 162.261 77.4184C167.033 78.6557 172.689 80.0698 179.229 81.6605C185.946 83.0746 192.309 83.7816 198.319 83.7816C201.854 83.7816 205.3 83.3397 208.659 82.4559C212.194 81.3954 214.933 79.3627 216.878 76.3579C217.585 75.2974 217.938 73.9717 217.938 72.3809C217.938 71.4972 217.85 70.7018 217.673 69.9947C217.673 69.111 217.762 68.5807 217.938 68.404C218.292 68.0505 218.645 67.8737 218.999 67.8737C219.706 67.8737 220.324 68.404 220.855 69.4645C221.385 70.1715 221.65 71.4972 221.65 73.4415C221.65 74.6787 221.562 75.5625 221.385 76.0928C220.324 79.8046 217.938 82.6327 214.226 84.577C210.691 86.5213 207.156 87.7586 203.621 88.2888C202.207 88.4656 200.616 88.6424 198.849 88.8191C197.258 88.8191 195.579 88.8191 193.811 88.8191C192.397 88.8191 190.895 88.8191 189.304 88.8191C187.713 88.8191 186.122 88.7307 184.532 88.554C178.699 91.2053 172.601 96.2428 166.238 103.666C158.46 112.858 151.744 122.668 146.088 133.096C140.431 143.348 135.217 153.953 130.445 164.912C125.672 175.694 120.723 186.388 115.597 196.993C110.648 207.598 104.727 217.761 97.8336 227.483C91.6472 236.144 84.6654 243.921 76.8882 250.815C69.111 257.708 60.2733 262.922 50.375 266.457C44.8956 268.402 38.3557 269.374 30.7553 269.374C27.7505 269.374 24.9224 269.109 22.2711 268.578C19.6197 268.225 17.3219 267.518 15.3776 266.457Z" fill="var(--fill-0, #541115)"/>
</g>
</svg>
